<?xml version="1.0" encoding="UTF-8" standalone="no"?>
<svg
   xmlns:dc="http://purl.org/dc/elements/1.1/"
   xmlns:cc="http://creativecommons.org/ns#"
   xmlns:rdf="http://www.w3.org/1999/02/22-rdf-syntax-ns#"
   xmlns:svg="http://www.w3.org/2000/svg"
   xmlns="http://www.w3.org/2000/svg"
   xmlns:sodipodi="http://sodipodi.sourceforge.net/DTD/sodipodi-0.dtd"
   xmlns:inkscape="http://www.inkscape.org/namespaces/inkscape"
   version="1.1"
   id="svg2"
   xml:space="preserve"
   width="666.66669"
   height="666.66669"
   viewBox="0 0 666.66669 666.66669"
   sodipodi:docname="4115505.ai"><metadata
     id="metadata8"><rdf:RDF><cc:Work
         rdf:about=""><dc:format>image/svg+xml</dc:format><dc:type
           rdf:resource="http://purl.org/dc/dcmitype/StillImage" /></cc:Work></rdf:RDF></metadata><defs
     id="defs6"><clipPath
       clipPathUnits="userSpaceOnUse"
       id="clipPath20"><path
         d="M 0,500 H 500 V 0 H 0 Z"
         id="path18" /></clipPath><clipPath
       clipPathUnits="userSpaceOnUse"
       id="clipPath32"><path
         d="m 319.906,209.015 h 27.758 v -8.011 h -27.758 z"
         id="path30" /></clipPath><clipPath
       clipPathUnits="userSpaceOnUse"
       id="clipPath52"><path
         d="m 357.701,277.701 h 43.555 v -12.57 h -43.555 z"
         id="path50" /></clipPath><clipPath
       clipPathUnits="userSpaceOnUse"
       id="clipPath80"><path
         d="M 123.963,275.13 H 260.351 V 192.801 H 123.963 Z"
         id="path78" /></clipPath><clipPath
       clipPathUnits="userSpaceOnUse"
       id="clipPath108"><path
         d="M 0,500 H 500 V 0 H 0 Z"
         id="path106" /></clipPath><clipPath
       clipPathUnits="userSpaceOnUse"
       id="clipPath116"><path
         d="M 204.876,284.113 H 247.97 V 271.676 H 204.876 Z"
         id="path114" /></clipPath><clipPath
       clipPathUnits="userSpaceOnUse"
       id="clipPath136"><path
         d="m 240.796,304.729 h 151.2 V 182.615 h -151.2 z"
         id="path134" /></clipPath><clipPath
       clipPathUnits="userSpaceOnUse"
       id="clipPath140"><path
         d="m 298.791,275.856 h 41.438 v -41.749 h -41.438 z"
         id="path138" /></clipPath><clipPath
       clipPathUnits="userSpaceOnUse"
       id="clipPath144"><path
         d="m 277.14,298.035 h 78.223 V 195.229 H 277.14 Z"
         id="path142" /></clipPath><clipPath
       clipPathUnits="userSpaceOnUse"
       id="clipPath280"><path
         d="m 295.885,275.856 h 41.438 v -41.749 h -41.438 z"
         id="path278" /></clipPath><clipPath
       clipPathUnits="userSpaceOnUse"
       id="clipPath332"><path
         d="m 274.234,298.035 h 78.223 V 195.229 h -78.223 z"
         id="path330" /></clipPath></defs><sodipodi:namedview
     pagecolor="#ffffff"
     bordercolor="#666666"
     borderopacity="1"
     objecttolerance="10"
     gridtolerance="10"
     guidetolerance="10"
     inkscape:pageopacity="0"
     inkscape:pageshadow="2"
     inkscape:window-width="640"
     inkscape:window-height="480"
     id="namedview4" /><g
     id="g10"
     inkscape:groupmode="layer"
     inkscape:label="4115505"
     transform="matrix(1.3333333,0,0,-1.3333333,0,666.66667)"><path
       d="M 0,0 H 500 V 500 H 0 Z"
       style="fill:#ffffff;fill-opacity:1;fill-rule:nonzero;stroke:none"
       id="path12" /><g
       id="g14"><g
         id="g16"
         clip-path="url(#clipPath20)"><g
           id="g22"
           transform="translate(102.5938,281.7661)"><path
             d="m 0,0 c -8.097,-14.594 -12.041,-31.19 -9.681,-48.069 3.431,-24.537 17.508,-47.679 38.847,-60.632 17.289,-10.494 37.717,-15.636 57.88,-15.626 21.849,0.013 38.44,7.814 60.36,6.258 3.014,-0.214 10.936,-2.902 13.937,-3.254 37.064,-4.339 38.85,26.727 58.355,27.287 22.466,0.646 41.539,7.917 53.645,16.374 39.593,27.662 36.068,66.02 22.413,83.802 -18.152,23.638 -50.802,32.883 -79.975,18.255 -16.502,-8.275 -34.93,-10.154 -52.476,-4.077 -9.145,3.167 -17.694,7.807 -26.294,12.245 C 113.323,44.787 88.369,54.079 61.511,47.526 36.272,41.369 12.881,23.218 0,0"
             style="fill:#e8f0f5;fill-opacity:1;fill-rule:nonzero;stroke:none"
             id="path24" /></g><g
           id="g26"><g
             id="g28" /><g
             id="g40"><g
               clip-path="url(#clipPath32)"
               opacity="0.75"
               id="g38"><g
                 transform="translate(342.6543,205.0967)"
                 id="g36"><path
                   d="m 0,0 c -0.511,0 -1.005,-0.075 -1.469,-0.217 -1.364,2.465 -3.993,4.135 -7.01,4.135 -2.47,0 -4.676,-1.117 -6.145,-2.875 -0.736,0.352 -1.565,0.548 -2.436,0.548 -3.139,0 -5.688,-2.545 -5.688,-5.684 h 6.258 5.114 6.366 4.541 5.479 C 4.537,-1.758 2.478,0 0,0"
                   style="fill:#00b3c0;fill-opacity:1;fill-rule:nonzero;stroke:none"
                   id="path34" /></g></g></g></g><g
           id="g42"
           transform="translate(339.748,205.0967)"><path
             d="m 0,0 c -0.511,0 -1.004,-0.075 -1.469,-0.217 -1.364,2.465 -3.993,4.135 -7.01,4.135 -2.47,0 -4.675,-1.117 -6.145,-2.875 -0.736,0.352 -1.565,0.548 -2.436,0.548 -3.139,0 -5.688,-2.545 -5.688,-5.684 h 6.258 5.114 6.366 4.541 5.479 C 4.537,-1.758 2.479,0 0,0"
             style="fill:#ffffff;fill-opacity:1;fill-rule:nonzero;stroke:none"
             id="path44" /></g><g
           id="g46"><g
             id="g48" /><g
             id="g60"><g
               clip-path="url(#clipPath52)"
               opacity="0.75"
               id="g58"><g
                 transform="translate(393.3955,271.5537)"
                 id="g56"><path
                   d="m 0,0 c -0.802,0 -1.576,-0.118 -2.306,-0.341 -2.14,3.868 -6.265,6.488 -11,6.488 -3.875,0 -7.336,-1.753 -9.641,-4.512 -1.156,0.552 -2.456,0.861 -3.823,0.861 -4.924,0 -8.924,-3.993 -8.924,-8.919 h 9.818 8.025 9.99 7.125 8.596 C 7.118,-2.758 3.888,0 0,0"
                   style="fill:#00b3c0;fill-opacity:1;fill-rule:nonzero;stroke:none"
                   id="path54" /></g></g></g></g><g
           id="g62"
           transform="translate(390.4893,271.5537)"><path
             d="m 0,0 c -0.802,0 -1.576,-0.118 -2.306,-0.341 -2.14,3.868 -6.264,6.488 -11,6.488 -3.875,0 -7.336,-1.753 -9.641,-4.512 -1.156,0.552 -2.456,0.861 -3.823,0.861 -4.924,0 -8.924,-3.993 -8.924,-8.919 h 9.818 8.025 9.99 7.125 8.596 C 7.118,-2.758 3.888,0 0,0"
             style="fill:#ffffff;fill-opacity:1;fill-rule:nonzero;stroke:none"
             id="path64" /></g><g
           id="g66"
           transform="translate(266.3506,190.5098)"><path
             d="m 0,0 c -43.976,-18.861 -104.155,-34.476 -142.52,4.765 -15.264,15.613 -23.263,38.348 -20.053,59.947 3.575,24.061 20.783,43.6 43.224,52.171 12.488,4.77 51.541,7.497 47.661,-15.805 -1.634,-9.818 -18.034,-11.337 -22.734,-1.563"
             style="fill:none;stroke:#ffffff;stroke-width:2.039;stroke-linecap:round;stroke-linejoin:round;stroke-miterlimit:10;stroke-dasharray:6.116, 6.116;stroke-dashoffset:0;stroke-opacity:1"
             id="path68" /></g><g
           id="g70"
           transform="translate(267.8037,189.0566)"><path
             d="m 0,0 c -43.976,-18.861 -104.155,-34.476 -142.52,4.765 -15.264,15.613 -23.263,38.348 -20.053,59.947 3.575,24.061 20.783,43.6 43.224,52.172 12.488,4.769 51.541,7.496 47.661,-15.806 -1.634,-9.818 -18.034,-11.337 -22.734,-1.563"
             style="fill:none;stroke:#00b3c0;stroke-width:2.039;stroke-linecap:round;stroke-linejoin:round;stroke-miterlimit:10;stroke-dasharray:6.116, 6.116;stroke-dashoffset:0;stroke-opacity:1"
             id="path72" /></g><g
           id="g74"><g
             id="g76" /><g
             id="g92"><g
               clip-path="url(#clipPath80)"
               opacity="0.75"
               id="g90"><text
                 transform="matrix(1,0,0,-1,123.9629,228.3457)"
                 style="font-variant:normal;font-weight:normal;font-stretch:normal;font-size:55.0401px;font-family:'Nautilus Pompilius';-inkscape-font-specification:NautilusPompilius;writing-mode:lr-tb;fill:#ffffff;fill-opacity:1;fill-rule:nonzero;stroke:none"
                 id="text84"><tspan
                   x="0 25.648687 44.582481 74.139015 96.155052 118.9967"
                   y="0"
                   sodipodi:role="line"
                   id="tspan82">Travel</tspan></text><text
                 transform="matrix(1,0,0,-1,150.7295,199.2832)"
                 style="font-variant:normal;font-weight:600;font-stretch:normal;font-size:24.4622px;font-family:'Montserrat SemiBold';-inkscape-font-specification:Montserrat-SemiBold;writing-mode:lr-tb;fill:#ffffff;fill-opacity:1;fill-rule:nonzero;stroke:none"
                 id="text88"><tspan
                   x="0 16.781069 39.824463 61.155499"
                   y="0"
                   sodipodi:role="line"
                   id="tspan86">LOGO</tspan></text></g></g></g></g></g><text
       transform="matrix(1,0,0,-1,125.416,226.8926)"
       style="font-variant:normal;font-weight:normal;font-stretch:normal;font-size:55.0401px;font-family:'Nautilus Pompilius';-inkscape-font-specification:NautilusPompilius;writing-mode:lr-tb;fill:#ff9e00;fill-opacity:1;fill-rule:nonzero;stroke:none"
       id="text96"><tspan
         x="0 25.648687 44.582481 74.139015 96.155052 118.9967"
         y="0"
         sodipodi:role="line"
         id="tspan94">Travel</tspan></text><text
       transform="matrix(1,0,0,-1,152.1826,197.8301)"
       style="font-variant:normal;font-weight:600;font-stretch:normal;font-size:24.4622px;font-family:'Montserrat SemiBold';-inkscape-font-specification:Montserrat-SemiBold;writing-mode:lr-tb;fill:#ff5400;fill-opacity:1;fill-rule:nonzero;stroke:none"
       id="text100"><tspan
         x="0 16.781069 39.824463 61.155499"
         y="0"
         sodipodi:role="line"
         id="tspan98">LOGO</tspan></text><g
       id="g102"><g
         id="g104"
         clip-path="url(#clipPath108)"><g
           id="g110"><g
             id="g112" /><g
             id="g124"><g
               clip-path="url(#clipPath116)"
               opacity="0.75"
               id="g122"><g
                 transform="translate(240.1924,278.0308)"
                 id="g120"><path
                   d="m 0,0 c -0.792,0 -1.56,-0.117 -2.281,-0.338 -2.118,3.828 -6.199,6.42 -10.884,6.42 -3.834,0 -7.258,-1.735 -9.539,-4.464 -1.143,0.546 -2.43,0.851 -3.781,0.851 -4.874,0 -8.831,-3.95 -8.831,-8.824 h 9.714 7.94 9.884 7.05 8.506 C 7.044,-2.729 3.847,0 0,0"
                   style="fill:#00b3c0;fill-opacity:1;fill-rule:nonzero;stroke:none"
                   id="path118" /></g></g></g></g><g
           id="g126"
           transform="translate(237.2861,278.0308)"><path
             d="m 0,0 c -0.792,0 -1.56,-0.117 -2.281,-0.338 -2.118,3.828 -6.199,6.42 -10.884,6.42 -3.834,0 -7.258,-1.735 -9.539,-4.464 -1.143,0.546 -2.43,0.851 -3.781,0.851 -4.874,0 -8.831,-3.95 -8.831,-8.824 h 9.714 7.941 9.883 7.05 8.506 C 7.044,-2.729 3.847,0 0,0"
             style="fill:#ffffff;fill-opacity:1;fill-rule:nonzero;stroke:none"
             id="path128" /></g><g
           id="g130"><g
             id="g132" /><g
             id="g240"><g
               clip-path="url(#clipPath136)"
               opacity="0.649994"
               id="g238"><g
                 transform="translate(391.9951,198.1494)"
                 id="g148"><path
                   d="m 0,0 -10.742,-1.931 -60.576,37.889 -4.578,2.866 -6.777,4.239 -7.159,4.473 0.876,0.466 15.559,8.258 16.719,8.875 4.912,-5.647 9.201,-10.571 5.064,-5.822 18.257,-20.982 5.063,-5.821 z"
                   style="fill:#00b3c0;fill-opacity:1;fill-rule:nonzero;stroke:none"
                   id="path146" /></g><g
                 transform="translate(350.2051,235.1416)"
                 id="g152"><path
                   d="M 0,0 -6.129,4.308 1.547,15.23 c 1.189,1.693 3.525,2.101 5.219,0.912 1.692,-1.19 2.1,-3.527 0.91,-5.219 z"
                   style="fill:#00b3c0;fill-opacity:1;fill-rule:nonzero;stroke:none"
                   id="path150" /></g><g
                 transform="translate(374.7461,210.0693)"
                 id="g156"><path
                   d="M 0,0 -6.13,4.308 1.546,15.23 c 1.189,1.694 3.526,2.101 5.219,0.912 1.692,-1.19 2.1,-3.527 0.911,-5.219 z"
                   style="fill:#00b3c0;fill-opacity:1;fill-rule:nonzero;stroke:none"
                   id="path154" /></g><g
                 transform="translate(315.958,235.9922)"
                 id="g160"><path
                   d="m 0,0 -6.636,5.22 -6.283,4.939 -4.248,3.336 -56.172,44.155 -1.824,10.762 20.134,-7.823 7.192,-2.791 25.927,-10.069 7.193,-2.791 L -1.653,39.864 5.323,37.155 2.64,18.417 0.141,0.981 Z"
                   style="fill:#00b3c0;fill-opacity:1;fill-rule:nonzero;stroke:none"
                   id="path158" /></g><g
                 transform="translate(289.7588,277.6196)"
                 id="g164"><path
                   d="m 0,0 6.13,-4.308 7.676,10.923 c 1.189,1.693 0.782,4.03 -0.911,5.219 -1.693,1.189 -4.029,0.781 -5.218,-0.911 z"
                   style="fill:#00b3c0;fill-opacity:1;fill-rule:nonzero;stroke:none"
                   id="path162" /></g><g
                 transform="translate(257.8555,292.2134)"
                 id="g168"><path
                   d="m 0,0 6.129,-4.308 7.677,10.923 c 1.189,1.693 0.781,4.03 -0.911,5.219 -1.694,1.189 -4.03,0.782 -5.219,-0.911 z"
                   style="fill:#00b3c0;fill-opacity:1;fill-rule:nonzero;stroke:none"
                   id="path166" /></g><g
                 transform="translate(292.5742,182.6152)"
                 id="g172"><path
                   d="M 0,0 -10.371,20.412 0.614,36.045 11.867,16.887 Z"
                   style="fill:#00b3c0;fill-opacity:1;fill-rule:nonzero;stroke:none"
                   id="path170" /></g><g
                 transform="translate(259.4844,205.8682)"
                 id="g176"><path
                   d="M 0,0 22.719,-2.841 33.704,12.792 11.867,16.888 Z"
                   style="fill:#00b3c0;fill-opacity:1;fill-rule:nonzero;stroke:none"
                   id="path174" /></g><g
                 id="g188"><g
                   id="g178" /><g
                   id="g186"><g
                     clip-path="url(#clipPath140)"
                     id="g184"><g
                       transform="translate(320.6768,234.1074)"
                       id="g182"><path
                         d="m 0,0 c 6.928,8.127 13.79,16.428 19.553,23.53 l -4.912,5.647 -16.72,-8.875 2.683,18.738 -6.976,2.709 C -11.102,33.92 -16.587,24.651 -21.886,15.38 Z"
                         style="fill:#00b3c0;fill-opacity:1;fill-rule:nonzero;stroke:none"
                         id="path180" /></g></g></g></g><g
                 transform="translate(352.748,278.0015)"
                 id="g192"><path
                   d="m 0,0 c -4.564,-6.496 -69.112,-87.15 -75.608,-82.585 -6.496,4.564 47.517,92.622 52.082,99.118 4.565,6.495 13.534,8.061 20.03,3.496 C 2.999,15.465 4.565,6.496 0,0"
                   style="fill:#00b3c0;fill-opacity:1;fill-rule:nonzero;stroke:none"
                   id="path190" /></g><g
                 transform="translate(345.9248,293.2974)"
                 id="g196"><path
                   d="m 0,0 c 4.49,-3.155 5.852,-9.111 3.407,-13.859 0.336,0.36 0.659,0.738 0.95,1.153 C 7.805,-7.802 6.618,-1.008 1.714,2.438 -3.19,5.885 -9.984,4.699 -13.431,-0.206 -13.722,-0.62 -13.968,-1.052 -14.193,-1.491 -10.555,2.417 -4.489,3.155 0,0"
                   style="fill:#00b3c0;fill-opacity:1;fill-rule:nonzero;stroke:none"
                   id="path194" /></g><g
                 transform="translate(334.0791,260.4634)"
                 id="g200"><path
                   d="M 0,0 C 1.222,-0.568 2.543,-0.319 2.95,0.557 3.357,1.433 2.696,2.604 1.475,3.172 0.252,3.74 -1.069,3.491 -1.477,2.615 -1.884,1.739 -1.223,0.568 0,0"
                   style="fill:#00b3c0;fill-opacity:1;fill-rule:nonzero;stroke:none"
                   id="path198" /></g><g
                 transform="translate(328.5928,253.9092)"
                 id="g204"><path
                   d="M 0,0 C 1.222,-0.568 2.543,-0.319 2.95,0.557 3.357,1.433 2.696,2.604 1.475,3.172 0.252,3.74 -1.069,3.491 -1.477,2.615 -1.883,1.739 -1.223,0.568 0,0"
                   style="fill:#00b3c0;fill-opacity:1;fill-rule:nonzero;stroke:none"
                   id="path202" /></g><g
                 transform="translate(323.1064,247.3555)"
                 id="g208"><path
                   d="M 0,0 C 1.222,-0.568 2.543,-0.319 2.95,0.557 3.357,1.433 2.696,2.604 1.475,3.172 0.252,3.74 -1.069,3.491 -1.476,2.615 -1.883,1.739 -1.223,0.567 0,0"
                   style="fill:#00b3c0;fill-opacity:1;fill-rule:nonzero;stroke:none"
                   id="path206" /></g><g
                 transform="translate(317.6201,240.8008)"
                 id="g212"><path
                   d="M 0,0 C 1.222,-0.568 2.543,-0.318 2.95,0.558 3.357,1.434 2.696,2.604 1.475,3.173 0.252,3.74 -1.068,3.491 -1.476,2.615 -1.884,1.739 -1.223,0.568 0,0"
                   style="fill:#00b3c0;fill-opacity:1;fill-rule:nonzero;stroke:none"
                   id="path210" /></g><g
                 transform="translate(312.9102,235.1377)"
                 id="g216"><path
                   d="M 0,0 C 1.223,-0.568 2.543,-0.318 2.95,0.557 3.357,1.433 2.697,2.604 1.475,3.172 0.252,3.74 -1.068,3.49 -1.476,2.615 -1.883,1.739 -1.223,0.568 0,0"
                   style="fill:#00b3c0;fill-opacity:1;fill-rule:nonzero;stroke:none"
                   id="path214" /></g><g
                 transform="translate(307.4238,228.584)"
                 id="g220"><path
                   d="M 0,0 C 1.223,-0.568 2.543,-0.319 2.95,0.557 3.357,1.433 2.697,2.604 1.475,3.172 0.252,3.74 -1.068,3.49 -1.476,2.614 -1.883,1.738 -1.223,0.567 0,0"
                   style="fill:#00b3c0;fill-opacity:1;fill-rule:nonzero;stroke:none"
                   id="path218" /></g><g
                 transform="translate(301.9375,222.0293)"
                 id="g224"><path
                   d="M 0,0 C 1.223,-0.568 2.543,-0.318 2.95,0.558 3.357,1.434 2.697,2.604 1.475,3.172 0.252,3.74 -1.068,3.491 -1.476,2.615 -1.883,1.739 -1.223,0.568 0,0"
                   style="fill:#00b3c0;fill-opacity:1;fill-rule:nonzero;stroke:none"
                   id="path222" /></g><g
                 id="g236"><g
                   id="g226" /><g
                   id="g234"><g
                     clip-path="url(#clipPath144)"
                     opacity="0.300003"
                     id="g232"><g
                       transform="translate(349.252,298.0308)"
                       id="g230"><path
                         d="m 0,0 c -0.064,0.046 -0.133,0.081 -18.774,-25.902 0,0 -53.402,-76.668 -53.338,-76.713 6.496,-4.564 71.044,76.09 75.608,82.586 C 8.062,-13.534 6.495,-4.564 0,0"
                         style="fill:#00b3c0;fill-opacity:1;fill-rule:nonzero;stroke:none"
                         id="path228" /></g></g></g></g></g></g></g><g
           id="g242"
           transform="translate(389.0898,198.1494)"><path
             d="m 0,0 -10.743,-1.931 -60.576,37.889 -4.578,2.866 -6.777,4.239 -7.159,4.473 0.876,0.466 15.559,8.258 16.719,8.875 4.912,-5.647 9.201,-10.571 5.064,-5.822 18.257,-20.982 5.063,-5.821 z"
             style="fill:#a3e6eb;fill-opacity:1;fill-rule:nonzero;stroke:none"
             id="path244" /></g><g
           id="g246"
           transform="translate(347.2988,235.1416)"><path
             d="M 0,0 -6.129,4.308 1.547,15.23 c 1.189,1.693 3.525,2.101 5.219,0.912 1.692,-1.19 2.1,-3.527 0.91,-5.219 z"
             style="fill:#a3e6eb;fill-opacity:1;fill-rule:nonzero;stroke:none"
             id="path248" /></g><g
           id="g250"
           transform="translate(371.8398,210.0693)"><path
             d="M 0,0 -6.13,4.308 1.546,15.23 c 1.189,1.694 3.526,2.101 5.219,0.912 1.693,-1.19 2.1,-3.527 0.911,-5.219 z"
             style="fill:#a3e6eb;fill-opacity:1;fill-rule:nonzero;stroke:none"
             id="path252" /></g><g
           id="g254"
           transform="translate(313.0518,235.9922)"><path
             d="m 0,0 -6.636,5.22 -6.283,4.939 -4.248,3.336 -56.172,44.155 -1.824,10.762 20.134,-7.823 7.192,-2.791 25.927,-10.069 7.193,-2.791 L -1.653,39.864 5.323,37.155 2.64,18.417 0.141,0.981 Z"
             style="fill:#a3e6eb;fill-opacity:1;fill-rule:nonzero;stroke:none"
             id="path256" /></g><g
           id="g258"
           transform="translate(286.8525,277.6196)"><path
             d="m 0,0 6.13,-4.308 7.676,10.923 c 1.189,1.693 0.782,4.03 -0.91,5.219 -1.694,1.189 -4.03,0.781 -5.219,-0.911 z"
             style="fill:#a3e6eb;fill-opacity:1;fill-rule:nonzero;stroke:none"
             id="path260" /></g><g
           id="g262"
           transform="translate(254.9492,292.2134)"><path
             d="m 0,0 6.129,-4.308 7.677,10.923 c 1.189,1.693 0.781,4.03 -0.911,5.219 -1.694,1.189 -4.03,0.782 -5.219,-0.911 z"
             style="fill:#a3e6eb;fill-opacity:1;fill-rule:nonzero;stroke:none"
             id="path264" /></g><g
           id="g266"
           transform="translate(289.668,182.6152)"><path
             d="M 0,0 -10.371,20.412 0.614,36.045 11.867,16.887 Z"
             style="fill:#a3e6eb;fill-opacity:1;fill-rule:nonzero;stroke:none"
             id="path268" /></g><g
           id="g270"
           transform="translate(256.5781,205.8682)"><path
             d="M 0,0 22.719,-2.841 33.704,12.792 11.867,16.888 Z"
             style="fill:#a3e6eb;fill-opacity:1;fill-rule:nonzero;stroke:none"
             id="path272" /></g><g
           id="g274"><g
             id="g276" /><g
             id="g288"><g
               clip-path="url(#clipPath280)"
               id="g286"><g
                 transform="translate(317.7705,234.1074)"
                 id="g284"><path
                   d="m 0,0 c 6.928,8.127 13.79,16.428 19.553,23.53 l -4.912,5.647 -16.72,-8.875 2.683,18.738 -6.976,2.709 C -11.102,33.92 -16.587,24.651 -21.886,15.38 Z"
                   style="fill:#a3e6eb;fill-opacity:1;fill-rule:nonzero;stroke:none"
                   id="path282" /></g></g></g></g><g
           id="g290"
           transform="translate(349.8428,278.0015)"><path
             d="m 0,0 c -4.565,-6.496 -69.113,-87.15 -75.609,-82.585 -6.495,4.564 47.517,92.622 52.082,99.118 4.565,6.495 13.534,8.061 20.03,3.496 C 2.998,15.465 4.564,6.496 0,0"
             style="fill:#a3e6eb;fill-opacity:1;fill-rule:nonzero;stroke:none"
             id="path292" /></g><g
           id="g294"
           transform="translate(343.0186,293.2974)"><path
             d="m 0,0 c 4.49,-3.155 5.852,-9.111 3.407,-13.859 0.336,0.36 0.659,0.738 0.951,1.153 C 7.805,-7.802 6.618,-1.008 1.714,2.438 -3.19,5.885 -9.984,4.699 -13.431,-0.206 -13.722,-0.62 -13.968,-1.052 -14.193,-1.491 -10.555,2.417 -4.489,3.155 0,0"
             style="fill:#00a46f;fill-opacity:1;fill-rule:nonzero;stroke:none"
             id="path296" /></g><g
           id="g298"
           transform="translate(331.1729,260.4634)"><path
             d="M 0,0 C 1.222,-0.568 2.543,-0.319 2.95,0.557 3.357,1.433 2.696,2.604 1.475,3.172 0.252,3.74 -1.069,3.491 -1.476,2.615 -1.883,1.739 -1.223,0.568 0,0"
             style="fill:#00a46f;fill-opacity:1;fill-rule:nonzero;stroke:none"
             id="path300" /></g><g
           id="g302"
           transform="translate(325.6865,253.9092)"><path
             d="M 0,0 C 1.222,-0.568 2.543,-0.319 2.95,0.557 3.357,1.433 2.696,2.604 1.475,3.172 0.252,3.74 -1.068,3.491 -1.476,2.615 -1.883,1.739 -1.223,0.568 0,0"
             style="fill:#00a46f;fill-opacity:1;fill-rule:nonzero;stroke:none"
             id="path304" /></g><g
           id="g306"
           transform="translate(320.2002,247.3555)"><path
             d="M 0,0 C 1.222,-0.568 2.543,-0.319 2.95,0.557 3.357,1.433 2.696,2.604 1.475,3.172 0.252,3.74 -1.068,3.491 -1.476,2.615 -1.883,1.739 -1.223,0.567 0,0"
             style="fill:#00a46f;fill-opacity:1;fill-rule:nonzero;stroke:none"
             id="path308" /></g><g
           id="g310"
           transform="translate(314.7139,240.8008)"><path
             d="M 0,0 C 1.222,-0.568 2.543,-0.318 2.95,0.558 3.357,1.434 2.696,2.604 1.475,3.173 0.252,3.74 -1.068,3.491 -1.476,2.615 -1.883,1.739 -1.223,0.568 0,0"
             style="fill:#00a46f;fill-opacity:1;fill-rule:nonzero;stroke:none"
             id="path312" /></g><g
           id="g314"
           transform="translate(310.0039,235.1377)"><path
             d="M 0,0 C 1.223,-0.568 2.543,-0.318 2.95,0.557 3.357,1.433 2.697,2.604 1.475,3.172 0.252,3.74 -1.068,3.49 -1.476,2.615 -1.883,1.739 -1.223,0.568 0,0"
             style="fill:#00a46f;fill-opacity:1;fill-rule:nonzero;stroke:none"
             id="path316" /></g><g
           id="g318"
           transform="translate(304.5176,228.584)"><path
             d="M 0,0 C 1.223,-0.568 2.543,-0.319 2.95,0.557 3.357,1.433 2.697,2.604 1.475,3.172 0.252,3.74 -1.068,3.49 -1.476,2.614 -1.883,1.738 -1.223,0.567 0,0"
             style="fill:#00a46f;fill-opacity:1;fill-rule:nonzero;stroke:none"
             id="path320" /></g><g
           id="g322"
           transform="translate(299.0312,222.0293)"><path
             d="M 0,0 C 1.223,-0.568 2.543,-0.318 2.95,0.558 3.357,1.434 2.697,2.604 1.475,3.172 0.252,3.74 -1.068,3.491 -1.476,2.615 -1.883,1.739 -1.222,0.568 0,0"
             style="fill:#00a46f;fill-opacity:1;fill-rule:nonzero;stroke:none"
             id="path324" /></g><g
           id="g326"><g
             id="g328" /><g
             id="g340"><g
               clip-path="url(#clipPath332)"
               opacity="0.300003"
               id="g338"><g
                 transform="translate(346.3457,298.0308)"
                 id="g336"><path
                   d="m 0,0 c -0.064,0.046 -0.133,0.081 -18.774,-25.902 0,0 -53.402,-76.668 -53.338,-76.713 6.496,-4.564 71.044,76.09 75.609,82.586 C 8.062,-13.534 6.495,-4.564 0,0"
                   style="fill:#ffffff;fill-opacity:1;fill-rule:nonzero;stroke:none"
                   id="path334" /></g></g></g></g><g
           id="g342"
           transform="translate(166.7759,322.8003)"><path
             d="m 0,0 c -4.306,0 -7.796,3.49 -7.796,7.795 0,4.306 3.49,7.796 7.796,7.796 4.305,0 7.795,-3.49 7.795,-7.796 C 7.795,3.49 4.305,0 0,0 m 0,21.213 c -7.411,0 -13.417,-6.007 -13.417,-13.418 0,-7.41 13.417,-29.373 13.417,-29.373 0,0 13.417,21.963 13.417,29.373 0,7.411 -6.007,13.418 -13.417,13.418"
             style="fill:#ffffff;fill-opacity:1;fill-rule:nonzero;stroke:none"
             id="path344" /></g><g
           id="g346"
           transform="translate(168.229,321.3472)"><path
             d="m 0,0 c -4.306,0 -7.796,3.49 -7.796,7.795 0,4.306 3.49,7.796 7.796,7.796 4.305,0 7.795,-3.49 7.795,-7.796 C 7.795,3.49 4.305,0 0,0 m 0,21.213 c -7.411,0 -13.417,-6.007 -13.417,-13.418 0,-7.41 13.417,-29.373 13.417,-29.373 0,0 13.417,21.963 13.417,29.373 0,7.411 -6.007,13.418 -13.417,13.418"
             style="fill:#00a46f;fill-opacity:1;fill-rule:nonzero;stroke:none"
             id="path348" /></g><g
           id="g350"
           transform="translate(169.9414,293.4111)"><path
             d="m 0,0 c 0,-1.749 -1.417,-3.166 -3.166,-3.166 -1.748,0 -3.165,1.417 -3.165,3.166 0,1.748 1.417,3.166 3.165,3.166 C -1.417,3.166 0,1.748 0,0"
             style="fill:#ffffff;fill-opacity:1;fill-rule:nonzero;stroke:none"
             id="path352" /></g><g
           id="g354"
           transform="translate(171.3945,291.958)"><path
             d="m 0,0 c 0,-1.749 -1.417,-3.166 -3.166,-3.166 -1.748,0 -3.165,1.417 -3.165,3.166 0,1.748 1.417,3.166 3.165,3.166 C -1.417,3.166 0,1.748 0,0"
             style="fill:#00a46f;fill-opacity:1;fill-rule:nonzero;stroke:none"
             id="path356" /></g><g
           id="g358"
           transform="translate(318.3057,179.6621)"><path
             d="m 0,0 c 1.698,0.791 6.339,2.751 12.326,2.173 0.922,-0.089 5.315,-0.514 5.367,-1.63 0.069,-1.418 -7.041,-0.328 -14.313,-6.246 -4.209,-3.424 -5.832,-7.046 -9.742,-7.061 -1.98,-0.007 -4.695,0.91 -4.97,2.716 C -11.824,-6.826 -4.356,-2.028 0,0"
             style="fill:#e8f0f5;fill-opacity:1;fill-rule:nonzero;stroke:none"
             id="path360" /></g></g></g></g></svg>
